<svg width="16" height="16" viewBox="0 0 16 16" fill="none" xmlns="http://www.w3.org/2000/svg">
<rect width="16" height="16" rx="4" fill="#181818"/>
<path d="M6.00002 4C5.89393 4 5.79219 4.04257 5.71718 4.11834C5.64216 4.19411 5.60002 4.29688 5.60002 4.40404C5.60002 4.5112 5.64216 4.61397 5.71718 4.68974C5.79219 4.76551 5.89393 4.80808 6.00002 4.80808H9.20006C9.30614 4.80808 9.40789 4.76551 9.4829 4.68974C9.55792 4.61397 9.60006 4.5112 9.60006 4.40404C9.60006 4.29688 9.55792 4.19411 9.4829 4.11834C9.40789 4.04257 9.30614 4 9.20006 4H6.00002ZM4 9.25253C4 8.2881 4.37929 7.36318 5.05443 6.68123C5.72956 5.99928 6.64525 5.61616 7.60004 5.61616C8.55483 5.61616 9.47051 5.99928 10.1456 6.68123C10.8208 7.36318 11.2001 8.2881 11.2001 9.25253C11.2001 10.2169 10.8208 11.1419 10.1456 11.8238C9.47051 12.5058 8.55483 12.8889 7.60004 12.8889C6.64525 12.8889 5.72956 12.5058 5.05443 11.8238C4.37929 11.1419 4 10.2169 4 9.25253V9.25253ZM7.20003 10.0606C7.20003 10.1678 7.24218 10.2705 7.31719 10.3463C7.39221 10.4221 7.49395 10.4646 7.60004 10.4646C7.70613 10.4646 7.80787 10.4221 7.88288 10.3463C7.9579 10.2705 8.00004 10.1678 8.00004 10.0606V7.63636C8.00004 7.52921 7.9579 7.42644 7.88288 7.35066C7.80787 7.27489 7.70613 7.23232 7.60004 7.23232C7.49395 7.23232 7.39221 7.27489 7.31719 7.35066C7.24218 7.42644 7.20003 7.52921 7.20003 7.63636V10.0606ZM11.8833 7.11354C11.8084 7.18939 11.7067 7.23209 11.6006 7.23224C11.4946 7.23239 11.3928 7.18998 11.3177 7.11434L10.5161 6.30788C10.4778 6.27066 10.4473 6.22612 10.4263 6.17686C10.4052 6.12759 10.3941 6.07459 10.3936 6.02095C10.393 5.9673 10.4031 5.91409 10.4231 5.8644C10.4432 5.81472 10.4728 5.76957 10.5103 5.73158C10.5478 5.69359 10.5924 5.66353 10.6416 5.64314C10.6907 5.62276 10.7434 5.61246 10.7965 5.61285C10.8496 5.61324 10.9021 5.6243 10.9509 5.64541C10.9997 5.66651 11.0439 5.69722 11.0809 5.73576L11.8825 6.54222C11.9576 6.61788 11.9998 6.72057 12 6.82771C12.0001 6.93485 11.9582 7.03766 11.8833 7.11354V7.11354Z" fill="#FF6C3C"/>
</svg>
