<svg width="24" height="26" viewBox="0 0 24 26" fill="none" xmlns="http://www.w3.org/2000/svg">
<path d="M1.09092 26C0.801593 26 0.524113 25.8859 0.319525 25.6827C0.114937 25.4795 0 25.204 0 24.9167V1.08316C3.2456e-05 0.894903 0.0494633 0.709908 0.14342 0.546404C0.237378 0.3829 0.372618 0.246531 0.535811 0.15074C0.699004 0.0549477 0.884517 0.0030386 1.07407 0.000129397C1.26361 -0.00277981 1.45065 0.0434113 1.61675 0.134149L23.4352 12.0509C23.6063 12.1444 23.7489 12.2818 23.8483 12.4487C23.9476 12.6157 24 12.806 24 12.9999C24 13.1938 23.9476 13.3842 23.8483 13.5511C23.7489 13.718 23.6063 13.8554 23.4352 13.9489L1.61675 25.8657C1.45568 25.9537 1.2748 25.9999 1.09092 26Z" fill="#2C2C2C"/>
</svg>
